<?xml version="1.0" encoding="UTF-8"?>
<svg width="571px" height="125px" viewBox="0 0 571 125" version="1.1" xmlns="http://www.w3.org/2000/svg" xmlns:xlink="http://www.w3.org/1999/xlink" style="background: #FFFFFF;">
    <!-- Generator: Sketch 52.4 (67378) - http://www.bohemiancoding.com/sketch -->
    <title>tf_tut_logo</title>
    <desc>Created with Sketch.</desc>
    <defs>
        <polygon id="path-1" points="23.3936471 13.3177564 23.4268235 25.4008333 9.38047059 17.291859 9.38047059 23.3961538 16.3842353 27.395641 16.4230588 37.8978205 9.38047059 33.8242949 9.38047059 49.1883333 0.0578823529 54.5980769 0.0578823529 0"></polygon>
        <linearGradient x1="-114.727941%" y1="49.547729%" x2="124.080882%" y2="49.547729%" id="linearGradient-3">
            <stop stop-color="#FF6E00" offset="0%"></stop>
            <stop stop-color="#FFA800" offset="100%"></stop>
        </linearGradient>
        <polygon id="path-4" points="0.0331764706 13.3177564 23.3738824 0 23.3738824 54.5980769 14.0512941 49.1883333 14.0512941 17.291859 0 25.4008333"></polygon>
        <linearGradient x1="-10.4558824%" y1="49.547729%" x2="228.352941%" y2="49.547729%" id="linearGradient-6">
            <stop stop-color="#FF6E00" offset="0%"></stop>
            <stop stop-color="#FFA800" offset="100%"></stop>
        </linearGradient>
    </defs>
    <g id="Page-1" stroke="none" stroke-width="1" fill="none" fill-rule="evenodd">
        <text id="2.0" font-family="Roboto-Medium, Roboto" font-size="46.5" font-weight="400" letter-spacing="-1.86" fill="#425066">
            <tspan x="322.367637" y="69">2.0</tspan>
        </text>
        <text id="Tutorial" font-family="Roboto-Medium, Roboto" font-size="46.5" font-weight="400" letter-spacing="-2" fill="#FF7300">
            <tspan x="402" y="69">Tutorial</tspan>
        </text>
        <text id="A-mini-course-by-IUS" font-family="Roboto-Regular, Roboto" font-size="21.5" font-weight="normal" letter-spacing="-0.569999993" fill="#909BAC">
            <tspan x="346.244971" y="108">A mini course by </tspan>
            <tspan x="502.004189" y="108" font-family="Roboto-Bold, Roboto" font-weight="bold">IUS</tspan>
            <tspan x="534.664795" y="108" font-family="Roboto-Bold, Roboto" font-weight="bold">T</tspan>
        </text>
        <g id="TF_FullColor_Horizontal" transform="translate(16.000000, 23.000000)">
            <g id="Group-3" transform="translate(26.000000, 0.000000)">
                <mask id="mask-2" fill="white">
                    <use xlink:href="#path-1"></use>
                </mask>
                <g id="Clip-2"></g>
                <polygon id="Fill-1" fill="url(#linearGradient-3)" mask="url(#mask-2)" points="0 54.9576923 24 54.9576923 24 0 0 0"></polygon>
            </g>
            <g id="Group-6">
                <mask id="mask-5" fill="white">
                    <use xlink:href="#path-4"></use>
                </mask>
                <g id="Clip-5"></g>
                <polygon id="Fill-4" fill="url(#linearGradient-6)" mask="url(#mask-5)" points="0 54.9576923 24 54.9576923 24 0 0 0"></polygon>
            </g>
            <polygon id="Fill-7" fill="#425066" points="93 16.6219618 82.3878099 16.6219618 82.3878099 45 76.5196482 45 76.5196482 16.6219618 66 16.6219618 66 12 93 12"></polygon>
            <path d="M98.9626676,45.9979369 C95.4221623,45.9979369 92.5423153,44.8750015 90.3210023,42.6277083 C88.1032298,40.3804152 86.9964678,37.3856837 87.0021326,33.6492032 L87.0021326,32.9522578 C86.9631871,30.6324255 87.4581497,28.337484 88.4459507,26.2402474 C89.3367418,24.354228 90.7387819,22.7626324 92.4927482,21.6425416 C94.243174,20.5430748 96.2711754,19.970584 98.3345819,20.0011642 C101.734175,20.0011642 104.36123,21.0899635 106.217871,23.2654287 C108.070971,25.4401826 109,28.5238102 109,32.5134667 L109,34.7799615 L92.6641087,34.7799615 C92.7306702,36.6161991 93.4635548,38.3663853 94.7303475,39.6941373 C95.9362436,40.9002795 97.5847029,41.5531324 99.2862697,41.4997947 C101.76958,41.5581106 104.124016,40.3917939 105.589785,38.3749194 L108.612669,41.2722207 C107.608581,42.7692309 106.22566,43.9753731 104.607649,44.7612145 C102.848726,45.6089276 100.914902,46.0334953 98.9626676,45.9979369 Z M98.292804,24.5177968 C96.8766018,24.4651703 95.5127992,25.0511733 94.5752734,26.1179264 C93.5407378,27.4129647 92.9105278,28.9853587 92.7639509,30.6352701 L103.465482,30.6352701 L103.465482,30.2576396 C103.343689,28.3737536 102.845894,26.9457268 101.9636,25.9906272 C101.017577,24.9793453 99.6728929,24.4402794 98.292804,24.5177968 Z" id="Fill-8" fill="#425066"></path>
            <path d="M118.11588,20.4705754 L118.277016,23.4262482 C119.982995,21.1808927 122.589276,19.9166583 125.310752,20.0042713 C130.342979,20.0042713 132.906747,23.0475572 133,29.1312325 L133,46 L127.568705,46 L127.568705,29.4650309 C127.568705,27.8358629 127.238892,26.6454842 126.577208,25.8649317 C125.913467,25.0814829 124.828031,24.6962752 123.325699,24.6962752 C121.250137,24.6260399 119.329539,25.8562428 118.429238,27.8358629 L118.429238,46 L113,46 L113,20.476368 L118.11588,20.4705754 Z" id="Fill-9" fill="#425066"></path>
            <path d="M152.696639,38.713982 C152.734386,37.7812687 152.275931,36.9004518 151.501087,36.4227206 C150.262298,35.7345602 148.921935,35.264649 147.53353,35.0286271 C145.935114,34.7122723 144.380623,34.1982847 142.900939,33.4987498 C140.190015,32.1465999 138.833866,30.1773806 138.833866,27.5974899 C138.822885,25.4569414 139.801563,23.440802 141.469296,22.1739613 C143.230367,20.7244168 145.460874,20 148.160817,20 C151.052927,20 153.391184,20.7414786 155.170786,22.2244359 C156.900287,23.5908039 157.89475,25.7341961 157.843963,27.9863574 L152.412507,27.9863574 C152.431037,26.9534059 152.004839,25.9645308 151.249211,25.2898777 C150.385834,24.5427118 149.28362,24.1623752 148.160817,24.2235134 C147.125862,24.1765934 146.101888,24.4765972 145.244,25.0815812 C144.517198,25.5984124 144.091,26.4593238 144.10953,27.3728425 C144.080019,28.186123 144.473961,28.9553271 145.138995,29.3889819 C145.839031,29.8695567 147.254202,30.3494207 149.38588,30.8385264 C151.125676,31.1854502 152.814684,31.7712397 154.404178,32.5767002 C155.492665,33.1319205 156.426047,33.9651064 157.112356,34.9980579 C157.725917,36.0260331 158.034071,37.2175174 157.99701,38.4253527 C158.034071,40.6050013 157.018332,42.6602406 155.288831,43.9014887 C153.487268,45.2984258 151.120185,45.9979608 148.203368,45.9979608 C146.377784,46.0313735 144.567985,45.6538806 142.900939,44.8875201 C141.452825,44.2263743 140.209231,43.1685409 139.297812,41.8270547 C138.45571,40.6050013 138.002745,39.1391058 138,37.6362431 L143.281154,37.6362431 C143.28939,38.8334148 143.825398,39.9637609 144.734072,40.7023959 C145.769027,41.4602254 147.020857,41.8384293 148.289157,41.7687601 C149.720799,41.7687601 150.809287,41.4879509 151.554619,40.921356 C152.27044,40.4358048 152.702129,39.6026188 152.696639,38.713982 Z" id="Fill-10" fill="#425066"></path>
            <path d="M161.016123,32.7829603 C160.980372,30.4883071 161.47387,28.214993 162.456661,26.1479558 C163.338508,24.2644339 164.743296,22.6832145 166.500682,21.6020388 C168.310642,20.5187292 170.381372,19.9660493 172.484347,20.0016143 C175.816862,20.0016143 178.524792,21.0913256 180.606037,23.2664803 C182.68658,25.4451916 183.809569,28.3344914 183.970797,31.9358022 L183.998136,33.2581085 C184.033886,35.5449374 183.555109,37.8118498 182.593348,39.8795983 C181.719913,41.7545846 180.320733,43.3272684 178.571058,44.3970633 C176.742171,45.4867746 174.64971,46.0422997 172.530612,45.9974878 C169.025654,45.9974878 166.232903,44.8224206 164.154463,42.4658844 C162.076022,40.1129046 161.024535,36.9732273 161,33.0468525 L161.016123,32.7829603 Z M166.569379,33.2751797 C166.569379,35.8507963 167.095123,37.8701764 168.14661,39.3347427 C169.19249,40.721066 170.816688,41.5298138 172.533416,41.5212782 C174.252949,41.5155878 175.871539,40.6904801 176.903399,39.2984664 C177.954886,37.814695 178.48063,35.6452306 178.48063,32.7829603 C178.48063,30.2521556 177.947175,28.2455789 176.873256,26.7618075 C175.851911,25.3697938 174.247341,24.5446861 172.53622,24.5361505 C170.827203,24.5311714 169.214922,25.3392079 168.182361,26.7233973 C167.103535,28.1844071 166.563771,30.3688088 166.569379,33.2751797 Z" id="Fill-11" fill="#425066"></path>
            <path d="M200.978226,25.7066467 C200.231576,25.579175 199.47158,25.5139906 198.714394,25.5168877 C196.165388,25.5168877 194.448022,26.5214517 193.561595,28.5356498 L193.561595,46 L188,46 L188,20.469442 L193.309434,20.469442 L193.452021,23.3266917 C194.787984,21.1118705 196.651448,20.0030114 199.03539,20.0030114 C199.704776,19.9798347 200.371353,20.0906482 201,20.3282092 L200.978226,25.7066467 Z" id="Fill-12" fill="#425066"></path>
            <polygon id="Fill-13" fill="#425066" points="224.062342 31.0165483 210.748175 31.0165483 210.748175 45 205 45 205 12 226 12 226 16.6219618 210.742601 16.6219618 210.742601 26.4377174 224.062342 26.4377174"></polygon>
            <polygon id="Fill-14" fill="#425066" points="229 45 235 45 235 11 229 11"></polygon>
            <path d="M240.01123,32.7829564 C239.975435,30.4883026 240.468844,28.2149878 241.452856,26.14795 C242.332992,24.2644276 243.742333,22.6832077 245.499798,21.6020317 C247.314816,20.521567 249.387417,19.9660417 251.490198,20.0016067 C254.832469,20.0016067 257.540958,21.0913183 259.62479,23.2664737 C261.705813,25.4451856 262.829496,28.3344862 262.997241,31.9357981 L262.997241,33.2581048 C263.040756,35.5449343 262.569105,37.8097135 261.612465,39.8795965 C260.740752,41.7545833 259.339833,43.3272676 257.585176,44.3970628 C255.753314,45.4867744 253.661762,46.0422997 251.536521,45.9974878 C248.049666,45.9974878 245.25555,44.8224202 243.158383,42.4658833 C241.058409,40.1129029 240.005615,36.9732247 240,33.0468487 L240.01123,32.7829564 Z M245.568581,33.275176 C245.568581,35.8507933 246.094978,37.870174 247.147772,39.3347407 C248.150734,40.7715667 249.804323,41.5938295 251.536521,41.5212769 C253.277843,41.5909843 254.93073,40.7516503 255.918251,39.2984644 C256.971046,37.8146926 257.497443,35.6452276 257.497443,32.7829564 C257.497443,30.252151 256.957009,28.2455737 255.879649,26.7618019 C254.859842,25.3697878 253.25047,24.5446798 251.539329,24.5361442 C249.826081,24.5311651 248.211094,25.3392019 247.180058,26.7233917 C246.105506,28.1844019 245.568581,30.3688042 245.568581,33.275176 Z" id="Fill-15" fill="#425066"></path>
            <polygon id="Fill-16" fill="#425066" points="288.697659 38.2652482 292.613185 21 298 21 291.293353 46 286.745479 46 281.467545 28.829078 276.281741 46 271.731774 46 265 21 270.417525 21 274.395169 38.0794326 279.446966 21 283.610266 21"></polygon>
        </g>
    </g>
</svg>